<svg width="24" height="24" viewBox="0 0 24 24" fill="none" xmlns="http://www.w3.org/2000/svg">
<path fill-rule="evenodd" clip-rule="evenodd" d="M19.9303 10.7726C19.9303 15.5843 15.95 19.5452 10.9652 19.5452C5.98029 19.5452 2 15.5843 2 10.7726C2 5.96089 5.98029 2 10.9652 2C15.95 2 19.9303 5.96089 19.9303 10.7726ZM17.7792 19.2132C15.908 20.6732 13.5403 21.5452 10.9652 21.5452C4.90927 21.5452 0 16.7222 0 10.7726C0 4.82306 4.90927 0 10.9652 0C17.021 0 21.9303 4.82306 21.9303 10.7726C21.9303 13.5175 20.8853 16.0227 19.1649 17.925L24 22.6752L22.6515 24L17.7792 19.2132Z" fill="#333333"/>
</svg>
